<svg width="50" height="20" viewBox="0 0 50 20" fill="none" xmlns="http://www.w3.org/2000/svg">
<path d="M9.72811 2.57328C9.15712 3.25086 8.24353 3.78378 7.32994 3.70765C7.21574 2.79406 7.66492 1.81957 8.19023 1.22573C8.76123 0.532928 9.75856 0.0380662 10.5732 0C10.6645 0.944043 10.2915 1.88047 9.72811 2.57328ZM10.558 3.88276C9.23325 3.80662 8.09888 4.63647 7.47459 4.63647C6.83508 4.63647 5.87581 3.92082 4.82518 3.94366C3.46241 3.9665 2.19861 4.73544 1.5058 5.96117C0.0745146 8.42025 1.13276 12.0518 2.51837 14.0541C3.19595 15.0438 4.00295 16.1325 5.0688 16.0944C6.08137 16.0563 6.47725 15.4397 7.69537 15.4397C8.92111 15.4397 9.27893 16.0944 10.3448 16.0792C11.4487 16.0563 12.1415 15.0895 12.8191 14.0997C13.588 12.973 13.9078 11.8843 13.923 11.8234C13.9002 11.8005 11.7913 10.9935 11.7685 8.55729C11.7456 6.51694 13.4358 5.55006 13.5119 5.48915C12.5602 4.07309 11.0757 3.92082 10.558 3.88276ZM18.2017 1.12676V15.965H20.5085V10.8946H23.6984C26.6143 10.8946 28.6546 8.89227 28.6546 5.99924C28.6546 3.1062 26.6447 1.12676 23.7745 1.12676H18.2017ZM20.5085 3.06814H23.1655C25.1678 3.06814 26.3098 4.13399 26.3098 6.00685C26.3098 7.87971 25.1678 8.96079 23.1579 8.96079H20.5085V3.06814ZM32.8572 16.0792C34.3037 16.0792 35.6436 15.3483 36.2527 14.1835H36.2983V15.965H38.43V8.58013C38.43 6.44081 36.7171 5.0552 34.0829 5.0552C31.639 5.0552 29.8271 6.45603 29.7586 8.37457H31.837C32.0121 7.46098 32.8572 6.85954 34.0144 6.85954C35.4228 6.85954 36.2146 7.51428 36.2146 8.72478V9.54701L33.3368 9.72212C30.6645 9.88199 29.218 10.9783 29.218 12.8816C29.2256 14.8002 30.7178 16.0792 32.8572 16.0792ZM33.4814 14.3205C32.2557 14.3205 31.4715 13.7267 31.4715 12.8283C31.4715 11.8919 32.2253 11.3514 33.6642 11.2676L36.2222 11.1077V11.9452C36.2222 13.3308 35.0422 14.3205 33.4814 14.3205ZM41.285 20C43.5309 20 44.5892 19.1397 45.5104 16.5436L49.553 5.19985H47.2081L44.4978 13.9627H44.4521L41.7418 5.19985H39.336L43.234 16.003L43.0208 16.6578C42.6706 17.7693 42.0996 18.2033 41.0795 18.2033C40.8967 18.2033 40.5465 18.1804 40.4019 18.1652V19.9467C40.5389 19.9772 41.1099 20 41.285 20Z" fill="#7A7A7A"/>
</svg>
