<svg width="43" height="20" viewBox="0 0 43 20" fill="none" xmlns="http://www.w3.org/2000/svg">
<g clip-path="url(#clip0_2235_5573)">
<path d="M40.203 0H2.86737C2.21382 0.000423067 1.58713 0.260095 1.12482 0.722035C0.662501 1.18398 0.402321 1.81045 0.401367 2.464V17.5364C0.402532 18.1898 0.662792 18.8162 1.12507 19.278C1.58735 19.7398 2.21392 19.9995 2.86737 20H40.203C40.8565 19.9996 41.4832 19.74 41.9455 19.2781C42.4079 18.8163 42.6682 18.1899 42.6694 17.5364V2.464C42.6683 1.81042 42.408 1.18394 41.9457 0.722011C41.4833 0.260082 40.8566 0.00042286 40.203 0Z" fill="#999999"/>
<path d="M40.2028 0.257813H2.86758C2.57773 0.257655 2.29068 0.31459 2.02283 0.425367C1.75498 0.536143 1.51157 0.698592 1.3065 0.903438C1.10143 1.10828 0.93872 1.35152 0.827652 1.61925C0.716584 1.88698 0.659337 2.17396 0.65918 2.46381V17.5362C0.659337 17.826 0.716587 18.113 0.82766 18.3807C0.938732 18.6484 1.10145 18.8916 1.30653 19.0964C1.5116 19.3013 1.75501 19.4637 2.02286 19.5744C2.29071 19.6851 2.57775 19.742 2.86758 19.7418H40.2028C40.4926 19.742 40.7796 19.685 41.0474 19.5743C41.3152 19.4635 41.5585 19.3011 41.7636 19.0963C41.9686 18.8915 42.1313 18.6483 42.2423 18.3806C42.3534 18.1129 42.4106 17.826 42.4108 17.5362V2.46381C42.4105 1.8785 42.1777 1.31727 41.7636 0.90358C41.3495 0.489886 40.7881 0.257601 40.2028 0.257813Z" fill="url(#paint0_linear_2235_5573)" fill-opacity="0.4"/>
<path d="M16.5352 4.65254C16.5431 3.43246 15.5605 2.43697 14.3404 2.42904C13.1203 2.42112 12.1248 3.40377 12.1169 4.62385C12.109 5.84394 13.0916 6.83943 14.3117 6.84735C15.5318 6.85527 16.5273 5.87262 16.5352 4.65254Z" fill="#E9E9E9"/>
<path d="M18.2715 3.1377H20.7407V17.1461H18.2715V3.1377Z" fill="#E9E9E9"/>
<path d="M22.9316 7.96973H25.4008V17.1461H22.9316V7.96973Z" fill="#E9E9E9"/>
<path d="M11.8518 7.88009C11.0788 7.8789 10.3176 8.06982 9.6366 8.43569V3.1377H7.16699V12.5601C7.1662 13.4866 7.44022 14.3926 7.95439 15.1634C8.46856 15.9342 9.19977 16.5352 10.0555 16.8903C10.9113 17.2455 11.8532 17.3389 12.7621 17.1586C13.6709 16.9784 14.5059 16.5327 15.1614 15.8779C15.8169 15.223 16.2635 14.3885 16.4446 13.4799C16.6257 12.5712 16.5333 11.6292 16.1791 10.7731C15.8248 9.91695 15.2245 9.18512 14.4543 8.67016C13.684 8.1552 12.7783 7.88025 11.8518 7.88009ZM11.8518 14.8165C11.406 14.8165 10.9702 14.6843 10.5995 14.4366C10.2289 14.189 9.93997 13.8369 9.76937 13.4251C9.59877 13.0132 9.55414 12.56 9.64111 12.1228C9.72808 11.6855 9.94275 11.2839 10.258 10.9687C10.5732 10.6535 10.9748 10.4388 11.4121 10.3518C11.8493 10.2648 12.3025 10.3095 12.7144 10.4801C13.1262 10.6507 13.4783 10.9396 13.7259 11.3102C13.9736 11.6809 14.1058 12.1167 14.1058 12.5625C14.1057 12.8584 14.0474 13.1515 13.9341 13.4249C13.8208 13.6983 13.6548 13.9467 13.4454 14.1559C13.2361 14.3651 12.9877 14.5311 12.7142 14.6443C12.4408 14.7575 12.1477 14.8157 11.8518 14.8157V14.8165Z" fill="#E9E9E9"/>
<path d="M16.5362 4.65352C16.5441 3.43344 15.5614 2.43794 14.3414 2.43002C13.1213 2.4221 12.1258 3.40475 12.1179 4.62483C12.1099 5.84491 13.0926 6.84041 14.3127 6.84833C15.5328 6.85625 16.5282 5.8736 16.5362 4.65352Z" fill="#ADABA0"/>
<path d="M18.2725 3.13867H20.7417V17.1471H18.2725V3.13867Z" fill="#E9E9E9"/>
<path d="M22.9326 7.9707H25.4018V17.1471H22.9326V7.9707Z" fill="#E9E9E9"/>
<path d="M11.8518 7.88107C11.0788 7.87988 10.3176 8.0708 9.6366 8.43667V3.13867H7.16699V12.5611C7.1662 13.4876 7.44022 14.3936 7.95439 15.1644C8.46856 15.9352 9.19977 16.5361 10.0555 16.8913C10.9113 17.2465 11.8532 17.3398 12.7621 17.1596C13.6709 16.9794 14.5059 16.5337 15.1614 15.8789C15.8169 15.224 16.2635 14.3895 16.4446 13.4808C16.6257 12.5722 16.5333 11.6302 16.1791 10.7741C15.8248 9.91792 15.2245 9.18609 14.4543 8.67113C13.684 8.15618 12.7783 7.88123 11.8518 7.88107ZM11.8518 14.8175C11.406 14.8175 10.9702 14.6853 10.5995 14.4376C10.2289 14.1899 9.93997 13.8379 9.76937 13.426C9.59877 13.0142 9.55414 12.561 9.64111 12.1237C9.72808 11.6865 9.94275 11.2849 10.258 10.9697C10.5732 10.6544 10.9748 10.4398 11.4121 10.3528C11.8493 10.2658 12.3025 10.3104 12.7144 10.481C13.1262 10.6516 13.4783 10.9405 13.7259 11.3112C13.9736 11.6819 14.1058 12.1177 14.1058 12.5635C14.1057 12.8594 14.0474 13.1525 13.9341 13.4259C13.8208 13.6993 13.6548 13.9477 13.4454 14.1569C13.2361 14.3661 12.9877 14.5321 12.7142 14.6453C12.4408 14.7585 12.1477 14.8167 11.8518 14.8167V14.8175Z" fill="#E9E9E9"/>
<path d="M33.523 17.1484H36.705L32.8818 12.2136L36.347 7.97365H33.4622L30.0594 12.2396V3.13965H27.5898V17.1484H30.0594V12.252L33.523 17.1484Z" fill="#E9E9E9"/>
</g>
<defs>
<linearGradient id="paint0_linear_2235_5573" x1="21.535" y1="19.6054" x2="21.535" y2="0.335749" gradientUnits="userSpaceOnUse">
<stop stop-color="#5A5A5A"/>
<stop offset="0.146" stop-color="#484848"/>
<stop offset="0.52" stop-color="#212121"/>
<stop offset="0.817" stop-color="#1E1D1D"/>
<stop offset="1" stop-color="#1A1A1A"/>
</linearGradient>
<clipPath id="clip0_2235_5573">
<rect width="42.268" height="20" fill="white" transform="translate(0.401367)"/>
</clipPath>
</defs>
</svg>
