<svg width="51" height="20" viewBox="0 0 51 20" fill="none" xmlns="http://www.w3.org/2000/svg">
<path d="M8.9124 6.81723V10.0184H13.3437C13.2543 10.5288 13.0629 11.0158 12.7811 11.4505C12.4992 11.8852 12.1326 12.2586 11.7031 12.5484C10.9627 13.0567 10.0175 13.3461 8.9093 13.3461C6.7674 13.3461 4.95687 11.8786 4.30732 9.91444C3.96742 8.88107 3.96742 7.76601 4.30732 6.73264C4.95687 4.75681 6.7674 3.2893 8.9093 3.2893C9.48988 3.27848 10.0668 3.38324 10.6065 3.59748C11.1462 3.81171 11.638 4.13114 12.0531 4.53719L14.403 2.16092C12.923 0.75477 10.9538 -0.0201056 8.9124 0.000396716C7.38531 0.00625667 5.89025 0.438893 4.59602 1.24947C3.30179 2.06004 2.25992 3.21627 1.58804 4.58763C1.00929 5.74658 0.708008 7.02424 0.708008 8.31966C0.708008 9.61508 1.00929 10.8927 1.58804 12.0517V12.0633C2.26011 13.4339 3.30225 14.5891 4.59662 15.3982C5.89099 16.2074 7.38594 16.6382 8.9124 16.642C11.1218 16.642 12.9906 15.9025 14.3448 14.6313C15.8969 13.187 16.7823 11.0498 16.7823 8.50746C16.7832 7.94129 16.7378 7.37599 16.6465 6.81723H8.9124ZM39.1326 6.50681C38.3465 5.77887 37.2755 5.40947 35.9205 5.40947C34.1775 5.40947 32.8675 6.0567 32.0015 7.33873L33.6195 8.36777C34.2119 7.48825 35.0206 7.04849 36.0455 7.04849C36.698 7.05008 37.3269 7.29306 37.811 7.73064C38.0469 7.93548 38.2361 8.18856 38.3658 8.47279C38.4955 8.75701 38.5628 9.06576 38.563 9.37819V9.8058C37.8568 9.41234 36.9682 9.20436 35.8747 9.20436C34.5989 9.20436 33.5737 9.50547 32.8101 10.1178C32.0465 10.7301 31.66 11.5387 31.66 12.567C31.6481 13.0265 31.739 13.4829 31.9262 13.9028C32.1134 14.3227 32.392 14.6954 32.7418 14.9937C33.4597 15.6409 34.3715 15.9645 35.4417 15.9645C36.7059 15.9645 37.7085 15.398 38.4683 14.2658H38.5459V15.6409H40.3006V9.5334C40.306 8.24904 39.9187 7.23164 39.1326 6.50681ZM37.6403 13.4369C37.3711 13.7108 37.0502 13.9284 36.6962 14.077C36.3423 14.2257 35.9622 14.3025 35.5783 14.303C35.0621 14.3116 34.5592 14.1401 34.1558 13.818C33.9675 13.6769 33.815 13.4937 33.7102 13.2831C33.6055 13.0725 33.5516 12.8402 33.5528 12.605C33.5528 12.0618 33.8027 11.6109 34.2931 11.2531C34.7836 10.8954 35.4207 10.7099 36.1611 10.7099C37.1824 10.6975 37.9817 10.9303 38.5513 11.3913C38.5513 12.1774 38.244 12.8588 37.6403 13.4369ZM30.3725 2.41702C29.9607 2.00532 29.47 1.68106 28.9297 1.46369C28.3895 1.24632 27.811 1.14032 27.2288 1.15206H22.3652V15.644H24.1991V9.77398H27.2257C28.4673 9.77398 29.515 9.35802 30.3694 8.53773C30.4377 8.46866 30.506 8.39882 30.5751 8.32975C31.3229 7.51364 31.7206 6.43669 31.6827 5.33044C31.6448 4.22419 31.1744 3.17696 30.3725 2.41391V2.41702ZM29.0858 7.24638C28.8547 7.49315 28.5735 7.68779 28.2612 7.81733C27.9489 7.94687 27.6125 8.00832 27.2745 7.9976H24.1991V2.93697H27.2745C27.9308 2.9346 28.5614 3.19212 29.0284 3.65327C29.5035 4.1264 29.7753 4.76619 29.7861 5.43661C29.7968 6.10703 29.5456 6.75519 29.0858 7.24328V7.24638ZM48.3816 5.73075L45.5459 12.8471H45.511L42.607 5.73075H40.6133L44.6325 15.0084L42.3548 20H44.2444L50.3752 5.73075H48.3816Z" fill="#7A7A7A"/>
</svg>
