<svg width="34" height="20" viewBox="0 0 34 20" fill="none" xmlns="http://www.w3.org/2000/svg">
<path fill-rule="evenodd" clip-rule="evenodd" d="M14.3238 15.7408C14.1919 15.6293 14.126 15.4796 14.126 15.292C14.126 15.1043 14.1919 14.9547 14.3238 14.8431C14.4607 14.7316 14.6433 14.6758 14.8715 14.6758C15.0997 14.6758 15.2798 14.7316 15.4116 14.8431C15.5486 14.9547 15.617 15.1043 15.617 15.292C15.617 15.4796 15.5486 15.6293 15.4116 15.7408C15.2798 15.8524 15.0997 15.9082 14.8715 15.9082C14.6433 15.9082 14.4607 15.8524 14.3238 15.7408ZM15.2671 15.292C15.2671 15.0866 15.1149 14.9573 14.8715 14.9573C14.6281 14.9573 14.4759 15.0866 14.4759 15.292C14.4759 15.505 14.6281 15.6343 14.8715 15.6343C15.1149 15.6343 15.2671 15.505 15.2671 15.292Z" fill="#7A7A7A"/>
<path d="M16.9021 14.7051H17.2444V15.8766H16.9173V15.694C16.8336 15.8234 16.6738 15.9071 16.4684 15.9071C16.2935 15.9071 16.1641 15.8614 16.0652 15.7701C15.9587 15.6636 15.9131 15.5267 15.9131 15.2756V14.7051H16.263V15.2832C16.263 15.4354 16.2935 15.5191 16.3619 15.5647C16.4228 15.6028 16.476 15.618 16.5597 15.618C16.7119 15.618 16.8336 15.5419 16.8792 15.405C16.8944 15.3745 16.9021 15.3213 16.9021 15.2604V14.7051Z" fill="#7A7A7A"/>
<path d="M18.5155 15.6031V15.877H18.0895C17.8461 15.877 17.7548 15.7857 17.7548 15.5651V14.9793H17.5342V14.7055H17.7548V14.3936H18.0971V14.7055H18.5155V14.9793H18.0971V15.489C18.0971 15.5727 18.1276 15.6031 18.2265 15.6031H18.5155Z" fill="#7A7A7A"/>
<path fill-rule="evenodd" clip-rule="evenodd" d="M19.6341 15.7408C19.4972 15.6293 19.4287 15.4796 19.4287 15.292C19.4287 15.1043 19.4972 14.9547 19.6341 14.8431C19.766 14.7316 19.946 14.6758 20.1742 14.6758C20.4025 14.6758 20.5825 14.7316 20.7144 14.8431C20.8513 14.9547 20.9198 15.1043 20.9198 15.292C20.9198 15.4796 20.8513 15.6293 20.7144 15.7408C20.5825 15.8524 20.4025 15.9082 20.1742 15.9082C19.946 15.9082 19.766 15.8524 19.6341 15.7408ZM20.5698 15.292C20.5698 15.0866 20.4177 14.9573 20.1742 14.9573C19.9308 14.9573 19.7787 15.0866 19.7787 15.292C19.7787 15.505 19.9308 15.6343 20.1742 15.6343C20.4177 15.6343 20.5698 15.505 20.5698 15.292Z" fill="#7A7A7A"/>
<path d="M21.9991 14.5456H21.7861C21.7024 14.5456 21.6644 14.5684 21.6644 14.6292V14.7053H21.9991V14.9792H21.6644V15.8769H21.322V14.9792H21.1318V14.7053H21.322V14.614C21.322 14.3858 21.4666 14.2793 21.7709 14.2793H21.9991V14.5456Z" fill="#7A7A7A"/>
<path d="M23.8554 15.6031V15.877H23.4294C23.1935 15.877 23.0946 15.7857 23.0946 15.5651V14.9793H22.874V14.7055H23.0946V14.3936H23.437V14.7055H23.8554V14.9793H23.437V15.489C23.437 15.5727 23.4674 15.6031 23.5739 15.6031H23.8554Z" fill="#7A7A7A"/>
<path d="M24.1973 15.8769V14.2793H24.5396V14.8727C24.6309 14.751 24.7906 14.6749 24.9884 14.6749C25.1609 14.6749 25.2978 14.7231 25.3992 14.8194C25.4981 14.9183 25.5438 15.0553 25.5438 15.3063V15.8769H25.2015V15.2987C25.2015 15.1618 25.171 15.0857 25.1026 15.0324C25.0493 14.9868 24.9808 14.964 24.9048 14.964C24.7374 14.964 24.6081 15.0477 24.5624 15.177C24.5472 15.2176 24.5396 15.2683 24.5396 15.3291V15.8769H24.1973Z" fill="#7A7A7A"/>
<path fill-rule="evenodd" clip-rule="evenodd" d="M26.0474 15.7484C25.9155 15.6369 25.8496 15.4872 25.8496 15.2996C25.8496 15.117 25.9206 14.9674 26.0626 14.8508C26.1996 14.7341 26.3771 14.6758 26.5951 14.6758C26.8082 14.6758 26.9831 14.7265 27.1201 14.8279C27.2519 14.9344 27.3179 15.0663 27.3179 15.2235C27.3179 15.2387 27.3179 15.254 27.3179 15.2692C27.3179 15.2844 27.3102 15.3148 27.3102 15.3681H26.2072C26.23 15.5354 26.3897 15.6267 26.6408 15.6267C26.8158 15.6267 26.9983 15.5735 27.1048 15.4746L27.2874 15.6876C27.1581 15.8245 26.8994 15.9082 26.6027 15.9082C26.3669 15.9082 26.1843 15.8549 26.0474 15.7484ZM26.2148 15.1551H26.9527C26.9299 15.0181 26.8005 14.9344 26.6027 14.9344C26.3973 14.9344 26.2528 15.0181 26.2148 15.1551Z" fill="#7A7A7A"/>
<path fill-rule="evenodd" clip-rule="evenodd" d="M28.3066 15.8769V14.2793H28.649V14.8423C28.7631 14.7357 28.9228 14.6749 29.113 14.6749C29.3108 14.6749 29.4706 14.7332 29.5923 14.8499C29.7191 14.9614 29.7825 15.1085 29.7825 15.2911C29.7825 15.4737 29.7216 15.6258 29.5923 15.7399C29.4706 15.8515 29.3108 15.9073 29.113 15.9073C28.9152 15.9073 28.7479 15.8464 28.6414 15.7323V15.8769H28.3066ZM29.4325 15.2911C29.4325 15.0933 29.2804 14.9564 29.0446 14.9564C28.8087 14.9564 28.649 15.0933 28.649 15.2911C28.649 15.4965 28.8087 15.6258 29.0446 15.6258C29.2804 15.6258 29.4325 15.4965 29.4325 15.2911Z" fill="#7A7A7A"/>
<path fill-rule="evenodd" clip-rule="evenodd" d="M30.2454 15.7408C30.1085 15.6293 30.04 15.4796 30.04 15.292C30.04 15.1043 30.1085 14.9547 30.2454 14.8431C30.3773 14.7316 30.5573 14.6758 30.7856 14.6758C31.0138 14.6758 31.1938 14.7316 31.3257 14.8431C31.4626 14.9547 31.5311 15.1043 31.5311 15.292C31.5311 15.4796 31.4626 15.6293 31.3257 15.7408C31.1938 15.8524 31.0138 15.9082 30.7856 15.9082C30.5573 15.9082 30.3773 15.8524 30.2454 15.7408ZM31.1812 15.292C31.1812 15.0866 31.029 14.9573 30.7856 14.9573C30.5421 14.9573 30.39 15.0866 30.39 15.292C30.39 15.505 30.5421 15.6343 30.7856 15.6343C31.029 15.6343 31.1812 15.505 31.1812 15.292Z" fill="#7A7A7A"/>
<path d="M33.1896 15.8766H32.7332L32.3984 15.4963L32.0713 15.8766H31.6377L32.193 15.2832L31.6529 14.7051H32.1018L32.4213 15.0626L32.7332 14.7051H33.1668L32.6267 15.2756L33.1896 15.8766Z" fill="#7A7A7A"/>
<path d="M17.6882 12.7646H16.7677V10.1248C16.7677 9.56947 16.5243 9.27278 16.0831 9.23474C15.8016 9.21192 15.3679 9.28039 15.0484 9.34885V12.7646H14.1279V8.70222C14.1279 8.70222 15.2462 8.45117 16.2504 8.45117C16.6917 8.45117 17.034 8.60332 17.3002 8.86958C17.5589 9.12824 17.6882 9.49086 17.6882 9.95745V12.7646Z" fill="#7A7A7A"/>
<path d="M33.1684 12.788C33.0213 12.8286 32.8666 12.8489 32.7043 12.8489C32.187 12.8489 31.8446 12.7348 31.6773 12.5066C31.5454 12.324 31.4795 11.9791 31.4795 11.4719V7.24219H32.3848V8.44417H33.1836V9.1821H32.3848V11.4187C32.3848 11.6621 32.4152 11.8219 32.4761 11.898C32.5471 11.9943 32.6992 12.0425 32.9325 12.0425C33.0035 12.0425 33.0821 12.0374 33.1684 12.0273V12.788Z" fill="#7A7A7A"/>
<path d="M4.80793 10.0122C4.80793 10.0122 3.72767 10.4306 2.40396 10.4306C1.08026 10.4306 0 10.0122 0 10.0122C0 10.0122 1.08026 9.59375 2.40396 9.59375C3.72767 9.59375 4.80793 10.0122 4.80793 10.0122Z" fill="#7A7A7A"/>
<path d="M8.12489 3.90264C8.12489 3.90264 7.17396 3.256 6.42843 2.18335C5.6905 1.10308 5.43945 0 5.43945 0C5.43945 0 6.39039 0.639029 7.13592 1.71929C7.87385 2.79195 8.12489 3.90264 8.12489 3.90264Z" fill="#7A7A7A"/>
<path d="M5.69147 6.53429C5.69147 6.53429 4.55035 6.40497 3.3788 5.79637C2.20724 5.18777 1.4541 4.32812 1.4541 4.32812C1.4541 4.32812 2.60283 4.45745 3.77438 5.06605C4.94594 5.67465 5.69147 6.53429 5.69147 6.53429Z" fill="#7A7A7A"/>
<path d="M8.01014 12.0129C8.69481 12.0053 9.51642 11.4652 9.51642 11.4652C9.51642 11.4652 7.60694 10.8946 7.72866 9.18293C8.10143 6.37576 10.3761 4.1772 13.2213 3.81965C12.917 3.77908 12.6076 3.75879 12.2931 3.75879C8.77849 3.774 5.9409 6.58117 5.95612 10.0274C5.97133 13.4812 8.83175 16.2579 12.354 16.2427C12.6482 16.2427 12.9347 16.2224 13.2137 16.1818C10.7184 15.8699 8.6872 14.143 7.96449 11.8684" fill="#7A7A7A"/>
<path d="M8.12489 16.0977C8.12489 16.0977 7.17396 16.7367 6.42843 17.8169C5.6905 18.8972 5.43945 20.0003 5.43945 20.0003C5.43945 20.0003 6.39039 19.3613 7.13592 18.281C7.87385 17.2007 8.12489 16.0977 8.12489 16.0977Z" fill="#7A7A7A"/>
<path d="M5.69147 13.458C5.69147 13.458 4.55035 13.5873 3.3788 14.1959C2.20724 14.8121 1.4541 15.6718 1.4541 15.6718C1.4541 15.6718 2.60283 15.5425 3.77438 14.9339C4.94594 14.3253 5.69147 13.458 5.69147 13.458Z" fill="#7A7A7A"/>
<path d="M13.2219 12.7576H12.2861V7.24219H13.2219V12.7576Z" fill="#7A7A7A"/>
<path fill-rule="evenodd" clip-rule="evenodd" d="M22.6095 9.12941C22.6095 9.69236 22.4371 10.1463 22.0922 10.4911C21.7423 10.831 21.2681 11.0009 20.6696 11.0009H19.5285V12.743H18.5928V7.22754H20.6012C21.2503 7.22754 21.7473 7.3949 22.0922 7.72963C22.4371 8.06943 22.6095 8.53603 22.6095 9.12941ZM21.6662 9.12941C21.6662 8.45995 21.3391 8.12522 20.6848 8.12522H19.5285V10.1108H20.6696C20.9841 10.1108 21.2275 10.0246 21.3999 9.85212C21.5774 9.67968 21.6662 9.43878 21.6662 9.12941Z" fill="#7A7A7A"/>
<path fill-rule="evenodd" clip-rule="evenodd" d="M26.9466 10.5753C26.9466 11.2397 26.7615 11.7748 26.3913 12.1805C26.016 12.5862 25.5317 12.7891 24.9383 12.7891C24.35 12.7891 23.8682 12.5862 23.4928 12.1805C23.1226 11.7748 22.9375 11.2397 22.9375 10.5753C22.9375 9.91092 23.1226 9.37586 23.4928 8.97013C23.8682 8.56947 24.35 8.36914 24.9383 8.36914C25.5367 8.36914 26.0211 8.56947 26.3913 8.97013C26.7615 9.37586 26.9466 9.91092 26.9466 10.5753ZM25.9957 10.5753C25.9957 10.1594 25.8993 9.82978 25.7066 9.58634C25.5139 9.3429 25.2578 9.22118 24.9383 9.22118C24.6238 9.22118 24.3702 9.34543 24.1775 9.59395C23.9848 9.83739 23.8884 10.1645 23.8884 10.5753C23.8884 10.9912 23.9848 11.3208 24.1775 11.5643C24.3702 11.8077 24.6238 11.9294 24.9383 11.9294C25.2578 11.9294 25.5139 11.8077 25.7066 11.5643C25.8993 11.3208 25.9957 10.9912 25.9957 10.5753Z" fill="#7A7A7A"/>
<path d="M30.9318 11.3355C30.9318 11.7514 30.7695 12.0937 30.4449 12.3625C30.1204 12.6313 29.6918 12.7657 29.1593 12.7657C28.3326 12.7657 27.6936 12.5197 27.2422 12.0278L27.9345 11.442C28.2844 11.7818 28.6901 11.9517 29.1517 11.9517C29.4103 11.9517 29.6157 11.901 29.7679 11.7995C29.92 11.6981 29.9961 11.5713 29.9961 11.4192C29.9961 11.2467 29.9073 11.1276 29.7298 11.0616C29.6335 11.021 29.3672 10.9678 28.931 10.9019C28.4036 10.8258 28.0283 10.7117 27.8051 10.5595C27.5414 10.3719 27.4096 10.0904 27.4096 9.7151C27.4096 9.3398 27.5693 9.02282 27.8888 8.76416C28.2083 8.51058 28.6318 8.38379 29.1593 8.38379C29.8034 8.38379 30.3536 8.59426 30.8101 9.01521L30.2624 9.59338C29.9327 9.3043 29.5574 9.15975 29.1365 9.15975C28.5989 9.15975 28.3301 9.30937 28.3301 9.60859C28.3301 9.7861 28.4543 9.90782 28.7028 9.97375C29.0477 10.0295 29.39 10.0879 29.7298 10.1487C30.5312 10.2958 30.9318 10.6914 30.9318 11.3355Z" fill="#7A7A7A"/>
</svg>
