<svg width="27" height="20" viewBox="0 0 27 20" fill="none" xmlns="http://www.w3.org/2000/svg">
<g clip-path="url(#clip0_2235_5539)">
<path fill-rule="evenodd" clip-rule="evenodd" d="M26.3291 7.96281C26.3291 12.3605 22.7708 15.9256 18.3814 15.9256C13.9919 15.9256 10.4336 12.3605 10.4336 7.96281C10.4336 3.56507 13.9919 0 18.3814 0C22.7708 0 26.3291 3.56507 26.3291 7.96281Z" fill="#999999"/>
<path fill-rule="evenodd" clip-rule="evenodd" d="M16.5244 7.96281C16.5244 12.3605 12.9661 15.9256 8.57667 15.9256C4.18724 15.9256 0.628906 12.3605 0.628906 7.96281C0.628906 3.56507 4.18724 0 8.57667 0C12.9661 0 16.5244 3.56507 16.5244 7.96281Z" fill="#7A7A7A"/>
<path fill-rule="evenodd" clip-rule="evenodd" d="M13.4793 1.69434C11.6249 3.15207 10.4346 5.41729 10.4346 7.96197C10.4346 10.5067 11.6249 12.7736 13.4793 14.2313C15.3338 12.7736 16.5241 10.5067 16.5241 7.96197C16.5241 5.41729 15.3338 3.15207 13.4793 1.69434Z" fill="#919191"/>
<path d="M26.3142 12.1875V11.9033H26.24L26.1546 12.0988L26.0693 11.9033H25.9951V12.1875H26.0474V11.9732L26.1275 12.1579H26.1818L26.2618 11.9727V12.1875H26.3142ZM25.8442 12.1875V11.9518H25.9393V11.9038H25.6973V11.9518H25.7923V12.1875H25.8442Z" fill="#616161"/>
<path d="M2.39729 19.8648H1.94629V17.7601H2.38845V18.0166C2.38845 18.0166 2.7768 17.7031 3.00747 17.7071C3.45596 17.7147 3.72376 18.0962 3.72376 18.0962C3.72376 18.0962 3.941 17.7071 4.43121 17.7071C5.15612 17.7071 5.26246 18.3703 5.26246 18.3703V19.8559H4.82915V18.5472C4.82915 18.5472 4.83071 18.1492 4.36046 18.1492C3.87419 18.1492 3.82988 18.5472 3.82988 18.5472V19.8559H3.37888V18.5383C3.37888 18.5383 3.33555 18.1227 2.92788 18.1227C2.39841 18.1227 2.38845 18.5472 2.38845 18.5472L2.39729 19.8648Z" fill="#7A7A7A"/>
<path d="M16.1124 17.7071C15.8817 17.7032 15.4934 18.0166 15.4934 18.0166V17.7607H15.0508V19.8649H15.5021L15.4934 18.5474C15.4934 18.5474 15.5034 18.1238 16.0329 18.1238C16.1312 18.1238 16.2076 18.1476 16.268 18.1843V18.1825L16.415 17.7728C16.3263 17.7354 16.2254 17.709 16.1124 17.7071Z" fill="#7A7A7A"/>
<path d="M22.4659 17.7071C22.2352 17.7032 21.8469 18.0166 21.8469 18.0166V17.7607H21.4043V19.8649H21.8556L21.8469 18.5474C21.8469 18.5474 21.8569 18.1238 22.3864 18.1238C22.4847 18.1238 22.5611 18.1476 22.6215 18.1843V18.1825L22.7685 17.7728C22.6798 17.7354 22.5789 17.709 22.4659 17.7071Z" fill="#7A7A7A"/>
<path d="M6.72047 17.6982C6.04552 17.6982 5.68833 18.3049 5.68653 18.8117C5.68468 19.3312 6.09316 19.9304 6.73949 19.9304C7.11656 19.9304 7.42632 19.652 7.42632 19.652L7.42551 19.8664H7.86943V17.7597H7.42394V18.025C7.42394 18.025 7.13304 17.6982 6.72047 17.6982ZM6.80692 18.127C7.16956 18.127 7.46395 18.4425 7.46395 18.8307C7.46395 19.219 7.16956 19.5327 6.80692 19.5327C6.44429 19.5327 6.15163 19.219 6.15163 18.8307C6.15163 18.4425 6.44429 18.127 6.80692 18.127Z" fill="#7A7A7A"/>
<path d="M19.6668 17.6982C18.9918 17.6982 18.6346 18.3049 18.6328 18.8117C18.631 19.3312 19.0394 19.9304 19.6858 19.9304C20.0629 19.9304 20.3726 19.652 20.3726 19.652L20.3718 19.8664H20.8157V17.7597H20.3702V18.025C20.3702 18.025 20.0793 17.6982 19.6668 17.6982ZM19.7532 18.127C20.1158 18.127 20.4102 18.4425 20.4102 18.8307C20.4102 19.219 20.1158 19.5327 19.7532 19.5327C19.3906 19.5327 19.0979 19.219 19.0979 18.8307C19.0979 18.4425 19.3906 18.127 19.7532 18.127Z" fill="#7A7A7A"/>
<path d="M23.9295 17.698C23.2545 17.698 22.8973 18.3046 22.8955 18.8115C22.8937 19.331 23.3021 19.9301 23.9485 19.9301C24.3255 19.9301 24.6353 19.6517 24.6353 19.6517L24.6345 19.8661H25.0784V16.9277H24.6329V18.0248C24.6329 18.0248 24.342 17.698 23.9295 17.698ZM24.0159 18.1268C24.3785 18.1268 24.6729 18.4422 24.6729 18.8305C24.6729 19.2187 24.3785 19.5324 24.0159 19.5324C23.6533 19.5324 23.3606 19.2187 23.3606 18.8305C23.3606 18.4422 23.6533 18.1268 24.0159 18.1268Z" fill="#7A7A7A"/>
<path d="M9.22416 19.9356C8.76433 19.9356 8.33984 19.6526 8.33984 19.6526L8.53439 19.3519C8.53439 19.3519 8.93604 19.5376 9.22416 19.5376C9.41136 19.5376 9.72444 19.4772 9.72822 19.29C9.73221 19.0922 9.20205 19.0336 9.20205 19.0336C9.20205 19.0336 8.41059 19.0228 8.41059 18.3703C8.41059 17.96 8.80587 17.6982 9.31259 17.6982C9.60538 17.6982 10.1527 17.9547 10.1527 17.9547L9.93161 18.2996C9.93161 18.2996 9.50903 18.1307 9.28606 18.1227C9.09778 18.1159 8.87043 18.2061 8.87043 18.3703C8.87043 18.8166 10.1881 18.3356 10.1881 19.2369C10.1881 19.8283 9.65143 19.9356 9.22416 19.9356Z" fill="#7A7A7A"/>
<path d="M10.9208 17.1494V17.7615H10.5283V18.2041H10.9208V19.2623C10.9208 19.2623 10.8861 19.9781 11.6556 19.9781C11.8684 19.9781 12.285 19.8207 12.285 19.8207L12.1069 19.3608C12.1069 19.3608 11.9412 19.5021 11.7542 19.4974C11.3985 19.4884 11.4084 19.2605 11.4084 19.2605V18.2041H12.1415V17.7615H11.4084V17.1494H10.9208Z" fill="#7A7A7A"/>
<path d="M13.5921 17.7236C12.8684 17.7236 12.5068 18.3197 12.5098 18.8371C12.5128 19.3692 12.8391 19.9679 13.6354 19.9679C13.9762 19.9679 14.4549 19.6688 14.4549 19.6688L14.2492 19.3109C14.2492 19.3109 13.9225 19.5425 13.6354 19.5425C13.0605 19.5425 13.0233 18.9806 13.0233 18.9806H14.5621C14.5621 18.9806 14.6769 17.7236 13.5921 17.7236ZM13.5264 18.1369C13.5435 18.1359 13.5618 18.1369 13.58 18.1369C14.1216 18.1369 14.1178 18.6486 14.1178 18.6486H13.0233C13.0233 18.6486 12.9974 18.1669 13.5264 18.1369Z" fill="#7A7A7A"/>
<path d="M18.1686 19.306L18.3749 19.7187C18.3749 19.7187 18.0479 19.9313 17.6808 19.9313C16.921 19.9313 16.499 19.3595 16.499 18.8183C16.499 17.9678 17.1705 17.7178 17.6246 17.7178C18.0367 17.7178 18.3937 17.9554 18.3937 17.9554L18.1623 18.3681C18.1623 18.3681 18.0221 18.1492 17.6121 18.1492C17.2027 18.1492 16.9868 18.5021 16.9868 18.8371C16.9868 19.2124 17.2382 19.5312 17.6183 19.5312C17.9165 19.5312 18.1686 19.306 18.1686 19.306Z" fill="#7A7A7A"/>
<path d="M26.0092 19.5762C25.9467 19.5777 25.8953 19.5984 25.8548 19.6383C25.8143 19.6783 25.7934 19.7282 25.792 19.7882C25.7934 19.8477 25.8143 19.8976 25.8548 19.9377C25.8953 19.9778 25.9467 19.9987 26.0092 20.0002C26.0703 19.9987 26.1211 19.9778 26.1617 19.9377C26.2023 19.8976 26.2233 19.8477 26.2249 19.7882C26.2234 19.7282 26.2024 19.6783 26.1619 19.6383C26.1214 19.5984 26.0705 19.5777 26.0092 19.5762ZM26.0092 19.9535C25.9616 19.9523 25.9224 19.9362 25.8914 19.9051C25.8605 19.8741 25.8445 19.8351 25.8434 19.7882C25.8445 19.7411 25.8605 19.7021 25.8914 19.6713C25.9224 19.6405 25.9616 19.6246 26.0092 19.6235C26.0558 19.6246 26.0945 19.6405 26.1252 19.6713C26.1559 19.7021 26.1718 19.7411 26.1729 19.7882C26.1718 19.8351 26.1559 19.8741 26.1252 19.9051C26.0945 19.9362 26.0558 19.9523 26.0092 19.9535ZM26.0217 19.6889H25.9308V19.8859H25.9728V19.8121H25.9921L26.0518 19.8859H26.1022L26.0378 19.8116C26.0579 19.8091 26.0734 19.8026 26.0843 19.792C26.0951 19.7815 26.1006 19.7681 26.1007 19.7518C26.1005 19.7324 26.0937 19.7171 26.0801 19.706C26.0665 19.6948 26.047 19.6892 26.0217 19.6889ZM26.0212 19.7258C26.0325 19.7259 26.0413 19.728 26.0477 19.7324C26.0542 19.7368 26.0574 19.7432 26.0576 19.7518C26.0574 19.7607 26.0542 19.7673 26.0477 19.7717C26.0413 19.7761 26.0325 19.7783 26.0212 19.7783H25.9728V19.7258L26.0212 19.7258Z" fill="#7A7A7A"/>
</g>
<defs>
<clipPath id="clip0_2235_5539">
<rect width="25.7003" height="20" fill="white" transform="translate(0.628906)"/>
</clipPath>
</defs>
</svg>
