<svg width="74" height="20" viewBox="0 0 74 20" fill="none" xmlns="http://www.w3.org/2000/svg">
<g clip-path="url(#clip0_2235_5605)">
<path d="M10.541 15.6098V11.3613H6.25683L6.25683 15.6098H10.541Z" fill="#7A7A7A"/>
<path d="M10.5234 9.87989V5.5957L6.23925 5.5957L6.23925 9.87989H10.5234Z" fill="#7A7A7A"/>
<path d="M4.81152 15.5918L4.81152 11.3076H0.527339L0.527339 15.5918H4.81152Z" fill="#7A7A7A"/>
<path d="M23.3151 5.32667C23.3151 8.28276 20.9373 10.6533 17.8742 10.6533H15.5393V15.5373H11.9834V0H17.867C20.9373 0 23.3151 2.37772 23.3151 5.32667ZM19.7663 5.32667C19.7663 4.19136 18.9666 3.32738 17.8813 3.32738H15.5464V7.32596H17.8813C18.9666 7.32596 19.7663 6.46198 19.7663 5.32667Z" fill="#7A7A7A"/>
<path d="M35.7104 4.14163V15.5376H32.2902V14.4665C31.5405 15.3305 30.4194 15.8589 28.8914 15.8589C25.9068 15.8589 23.4434 13.2384 23.4434 9.83959C23.4434 6.44081 25.9068 3.82031 28.8914 3.82031C30.4194 3.82031 31.5333 4.34155 32.2902 5.21267V4.14163H35.7104ZM32.2902 9.83959C32.2902 8.13306 31.1477 7.05487 29.5769 7.05487C28.006 7.05487 26.8636 8.12592 26.8636 9.83959C26.8636 11.5461 28.006 12.6243 29.5769 12.6243C31.1477 12.6172 32.2902 11.5461 32.2902 9.83959Z" fill="#7A7A7A"/>
<path d="M48.6988 4.1416L44.8288 15.1234C43.5578 18.7221 41.5443 20.1502 38.374 19.9931V16.8228C39.9591 16.8228 40.7088 16.323 41.2015 14.9449L36.7031 4.1416H40.4375L42.9509 11.0677L45.0787 4.1416H48.6988Z" fill="#7A7A7A"/>
<path d="M61.358 5.32667C61.358 8.28276 58.9803 10.6533 55.9171 10.6533H53.5822V15.5373H50.0264V0H55.91C58.9803 0 61.358 2.37772 61.358 5.32667ZM57.8093 5.32667C57.8093 4.19136 57.0096 3.32738 55.9243 3.32738H53.5894V7.32596H55.9243C57.0096 7.32596 57.8093 6.46198 57.8093 5.32667Z" fill="#7A7A7A"/>
<path d="M61.8008 9.99598C61.8008 6.69002 64.4213 4.13379 67.6844 4.13379C70.9475 4.13379 73.568 6.69002 73.568 9.99598C73.568 13.3019 70.9475 15.8582 67.6844 15.8582C64.4284 15.8582 61.8008 13.3019 61.8008 9.99598ZM70.2406 9.99598C70.2406 8.41797 69.1267 7.37549 67.6844 7.37549C66.2421 7.37549 65.1282 8.41797 65.1282 9.99598C65.1282 11.574 66.2421 12.6165 67.6844 12.6165C69.1339 12.6165 70.2406 11.574 70.2406 9.99598Z" fill="#7A7A7A"/>
</g>
<defs>
<clipPath id="clip0_2235_5605">
<rect width="73.0453" height="20" fill="white" transform="translate(0.530273)"/>
</clipPath>
</defs>
</svg>
