<svg width="103" height="16" viewBox="0 0 103 16" fill="none" xmlns="http://www.w3.org/2000/svg">
<path d="M13.2038 0.795121C14.0715 0.420917 14.9745 0.0680822 15.9251 0C16.2655 0.0168963 16.7108 0.146103 16.7406 0.552112C16.7819 1.54552 16.1552 2.39729 15.6786 3.21875C14.8557 4.46908 14.31 5.90924 14.159 7.40108C13.9955 8.88548 14.3543 10.5105 15.378 11.644C16.2983 12.6578 17.7345 13.0827 19.0589 13.033C20.6019 12.9813 22.1261 12.5157 23.4698 11.7554C25.5222 10.5955 27.1646 8.82236 28.4408 6.8609C28.5914 6.61292 28.9094 6.36942 29.2041 6.52844C29.4983 6.66759 29.4258 7.0403 29.3925 7.29971C27.9742 10.0449 26.0271 12.6042 23.4072 14.3003C21.7489 15.3607 19.7954 16.0585 17.811 15.9924C16.2561 16.0609 14.7136 15.6609 13.2893 15.0556C12.0479 14.5224 10.9154 13.7775 9.71175 13.1697C7.62903 12.0779 5.26802 11.2872 2.90253 11.5258C2.31464 11.6212 1.7173 11.648 1.12146 11.6103C0.781049 11.5635 0.369574 11.3956 0.344727 10.998C0.351684 10.4737 0.665259 10.0136 0.970387 9.60655C1.68202 8.65638 2.59442 7.8876 3.45067 7.07658C3.16591 7.67341 3.03174 8.41586 3.37314 9.01965C3.73244 9.68209 4.51762 9.9574 5.23074 9.99218C5.62234 10.106 6.01443 9.9251 6.4105 9.93056C8.21742 9.61251 9.88419 8.72248 11.3 7.57452C12.2939 6.72473 13.2103 5.68164 13.5875 4.40447C13.7743 3.75546 13.666 2.96878 13.1149 2.52451C12.4902 2.0216 11.6136 1.89835 10.8428 2.02458C11.5828 1.53458 12.3998 1.16932 13.2038 0.795121Z" fill="#7A7A7A"/>
<path d="M84.3234 3.22586C84.5823 3.23332 85.0097 3.11803 85.1419 3.40328C85.1533 6.38349 85.1439 9.36519 85.1468 12.3464C85.1578 12.6247 84.79 12.5869 84.6022 12.5993C84.4084 12.5849 84.0242 12.6331 84.0416 12.3449C84.0406 9.37811 84.0381 6.41132 84.0426 3.44452C84.0213 3.28252 84.1972 3.23531 84.3234 3.22586Z" fill="#7A7A7A"/>
<path d="M91.6529 3.44349C91.638 3.20595 91.9391 3.22633 92.1021 3.21191C92.3123 3.22633 92.6006 3.16421 92.7442 3.35802C92.766 5.19972 92.7447 7.0439 92.7546 8.88659C93.5145 8.06563 94.2624 7.23373 95.0162 6.40731C95.3035 6.0505 95.8213 6.13398 96.2213 6.18418C96.4773 6.23636 96.3416 6.54248 96.2099 6.65727C95.4734 7.40121 94.7315 8.14017 93.99 8.87864C94.8269 9.97541 95.6802 11.0598 96.5121 12.16C96.6497 12.2922 96.6432 12.561 96.4107 12.571C96.028 12.5879 95.4968 12.7111 95.2587 12.319C94.4244 11.2267 93.5964 10.1295 92.7541 9.04363C92.7506 10.1434 92.7551 11.2436 92.7521 12.3439C92.769 12.6266 92.3933 12.5849 92.204 12.5973C92.0226 12.5784 91.6852 12.6361 91.6529 12.3896C91.6529 9.40789 91.6544 6.4252 91.6529 3.44349Z" fill="#7A7A7A"/>
<path d="M33.9451 4.30527C33.9306 4.0071 34.2397 3.83267 34.5081 3.87293C35.4682 3.90523 36.4437 3.78745 37.3899 3.99518C38.1403 4.16265 38.8316 4.68246 39.1014 5.41695C39.5333 6.58329 39.1844 8.09005 38.0827 8.76093C37.1961 9.33391 36.0998 9.26086 35.0915 9.25937C35.0851 10.3139 35.102 11.3694 35.0836 12.4235C34.9623 12.653 34.6244 12.5765 34.4062 12.5959C34.2333 12.582 33.9157 12.5924 33.9421 12.3395C33.9431 9.66141 33.9361 6.98334 33.9451 4.30527ZM35.091 4.82409C35.0915 5.98844 35.0895 7.1523 35.0925 8.31666C35.8901 8.27988 36.81 8.46475 37.4754 7.90618C38.2168 7.27157 38.2805 5.97503 37.6036 5.27234C36.9263 4.6432 35.9289 4.86931 35.091 4.82409Z" fill="#7A7A7A"/>
<path d="M71.094 4.33985C71.0697 4.04715 71.3509 3.83495 71.6282 3.87321C72.6689 3.91247 73.7378 3.75891 74.7531 4.05211C75.4881 4.27872 76.1222 4.86065 76.3224 5.61502C76.5918 6.60942 76.3706 7.78869 75.585 8.49634C74.6855 9.32824 73.384 9.27308 72.2435 9.26115C72.2445 10.2724 72.243 11.2837 72.2445 12.295C72.2465 12.3939 72.2395 12.5197 72.1202 12.5425C71.83 12.621 71.5134 12.6195 71.2232 12.545C71.0791 12.5206 71.0871 12.3572 71.09 12.2458C71.0945 9.61051 71.0866 6.97518 71.094 4.33985ZM72.2435 4.82388C72.2455 5.98625 72.242 7.14911 72.2455 8.31198C72.9636 8.28514 73.7438 8.42975 74.4022 8.06549C75.5333 7.44032 75.5179 5.40879 74.2457 4.95507C73.6001 4.74884 72.9099 4.84724 72.2435 4.82388Z" fill="#7A7A7A"/>
<path d="M9.23352 4.3648C9.76973 4.22963 10.6518 4.37474 10.615 5.08786C10.461 6.11605 9.52523 6.8088 8.66501 7.26898C8.10047 7.53981 7.45891 7.75052 6.82828 7.6233C6.51669 7.56516 6.2384 7.30426 6.23343 6.97528C6.22995 6.50715 6.51123 6.09766 6.80443 5.75626C7.44599 5.06202 8.30075 4.54618 9.23352 4.3648Z" fill="#7A7A7A"/>
<path d="M58.1535 4.67545C58.2633 4.48959 58.5257 4.54376 58.7091 4.52637C58.884 4.54177 59.1603 4.50003 59.2344 4.70527C59.2552 5.19576 59.2358 5.68774 59.2428 6.17873C59.7934 6.17922 60.344 6.17376 60.8947 6.18171C61.0527 6.43466 61.0835 6.83669 60.8832 7.07125C60.3396 7.11945 59.788 7.07771 59.2418 7.09212C59.2463 8.24505 59.2373 9.39797 59.2463 10.5509C59.2617 10.9077 59.2875 11.3266 59.5728 11.5811C59.9027 11.8141 60.3421 11.7466 60.6919 11.594C60.7858 11.5478 60.9632 11.4996 60.9801 11.6546C61.0353 11.9578 61.087 12.4398 60.7038 12.5432C60.0682 12.732 59.3054 12.7539 58.7424 12.3563C58.2529 11.9881 58.153 11.3281 58.144 10.7551C58.1346 9.53364 58.1455 8.31263 58.1386 7.09113C57.822 7.06827 57.4955 7.1284 57.1854 7.05932C57.017 6.82178 57.0214 6.43615 57.1919 6.20308C57.5015 6.14493 57.824 6.19264 58.1391 6.17922C58.152 5.6783 58.1207 5.17489 58.1535 4.67545Z" fill="#7A7A7A"/>
<path d="M21.414 4.96501C22.2221 4.83729 23.1658 5.02614 23.6871 5.71242C24.0573 6.17161 24.104 6.79279 24.0185 7.35435C23.6448 8.99975 21.9592 10.1899 20.2984 10.1144C19.6648 10.0846 19.0053 9.82916 18.6261 9.29743C18.1774 8.67624 18.1943 7.82297 18.4979 7.14364C19.0113 5.98674 20.1617 5.13 21.414 4.96501Z" fill="#7A7A7A"/>
<path d="M49.4344 6.0586C50.0481 6.05711 50.6897 6.21465 51.1708 6.61171C51.459 6.83484 51.4391 7.25427 51.3561 7.57083C51.2408 7.82675 50.9779 7.60213 50.8408 7.48982C50.2295 6.98492 49.2818 6.7762 48.5926 7.24383C47.9729 7.70351 47.8342 8.53888 47.8213 9.26195C47.8094 9.93482 47.878 10.6673 48.3083 11.215C48.7859 11.8083 49.7013 11.8645 50.3458 11.53C50.6683 11.3934 50.9108 11.123 51.2244 10.9749C51.4207 10.9476 51.4138 11.2165 51.4287 11.3481C51.4605 11.6364 51.4167 11.9698 51.1444 12.1318C50.1068 12.8519 48.5389 12.927 47.5639 12.0578C46.888 11.4232 46.6803 10.4521 46.6684 9.55863C46.65 8.64821 46.81 7.6732 47.4059 6.95162C47.8924 6.35081 48.6761 6.06159 49.4344 6.0586Z" fill="#7A7A7A"/>
<path d="M79.56 6.07256C80.3919 5.99652 81.3038 6.12623 81.9558 6.68927C82.6302 7.27468 82.8921 8.19752 82.915 9.06321C82.9562 9.97561 82.7813 10.9481 82.1959 11.6757C81.7193 12.275 80.9704 12.6085 80.217 12.6701C79.3906 12.7406 78.4851 12.607 77.8401 12.0464C77.2249 11.5181 76.962 10.6967 76.9019 9.911C76.8308 8.98618 76.9446 7.99377 77.4838 7.21306C77.9459 6.53124 78.7485 6.13169 79.56 6.07256ZM79.6003 6.99291C78.5254 7.0918 78.0195 8.25069 78.0414 9.2103C78.0433 9.80466 78.0771 10.4338 78.3798 10.9616C78.9811 12.0539 80.8203 12.024 81.4147 10.9392C81.7804 10.2837 81.7988 9.49655 81.7178 8.76851C81.6552 8.23081 81.4743 7.65982 81.0315 7.31493C80.6344 6.9944 80.0918 6.93228 79.6003 6.99291Z" fill="#7A7A7A"/>
<path d="M88.2547 6.06885C88.8898 6.01716 89.587 6.09618 90.1108 6.48629C90.2748 6.70445 90.234 7.02647 90.1734 7.27743C90.1018 7.43795 89.9244 7.32365 89.8221 7.26501C89.257 6.92807 88.523 6.76855 87.9028 7.04535C87.3954 7.27445 87.3025 8.05963 87.7562 8.3901C88.4753 8.95166 89.4931 9.00732 90.1406 9.68019C90.8666 10.4857 90.5466 11.9294 89.5656 12.3806C88.6338 12.8323 87.4849 12.7732 86.567 12.314C86.1893 12.1475 86.2182 11.6516 86.3086 11.3181C86.3966 11.1372 86.6083 11.2923 86.7285 11.3569C87.381 11.7639 88.2368 11.9751 88.9633 11.6402C89.4802 11.416 89.6218 10.6154 89.171 10.2576C88.5195 9.71696 87.5917 9.66478 86.9561 9.09329C86.2584 8.5218 86.2276 7.36837 86.8259 6.71588C87.1922 6.3218 87.7264 6.11556 88.2547 6.06885Z" fill="#7A7A7A"/>
<path d="M97.8407 6.60061C98.6284 6.12255 99.5925 5.97495 100.499 6.09372C101.002 6.16429 101.522 6.36556 101.838 6.78299C102.187 7.24715 102.249 7.85392 102.245 8.41697C102.24 9.75675 102.255 11.097 102.238 12.4363C102.119 12.6738 101.767 12.5859 101.547 12.5889C101.135 12.572 101.349 12.0527 101.299 11.7918C100.654 12.5044 99.6347 12.8682 98.693 12.6122C97.9426 12.4711 97.3174 11.8161 97.2921 11.0394C97.1992 10.3133 97.5828 9.56145 98.2517 9.24837C99.1422 8.79018 100.174 8.84633 101.146 8.84435C101.145 8.3951 101.181 7.91554 100.973 7.50158C100.78 7.13285 100.35 6.96538 99.9523 6.95643C99.2824 6.88586 98.6339 7.13732 98.0624 7.46332C97.9406 7.52246 97.7493 7.64769 97.6519 7.48817C97.5207 7.20143 97.5267 6.76809 97.8407 6.60061ZM98.9117 9.90534C98.3466 10.1975 98.2552 11.0404 98.6667 11.4956C99.0061 11.8549 99.5656 11.8857 100.016 11.7575C100.464 11.6119 100.829 11.2824 101.133 10.933C101.171 10.5047 101.136 10.0703 101.149 9.63996C100.404 9.6663 99.595 9.5361 98.9117 9.90534Z" fill="#7A7A7A"/>
<path d="M42.1301 6.10706C43.0177 5.96941 44.0111 6.06184 44.7376 6.63632C45.3886 7.15315 45.6838 7.99399 45.7449 8.79954C45.8255 9.74325 45.7012 10.757 45.1412 11.5472C44.6854 12.2007 43.9152 12.5868 43.132 12.6628C42.2593 12.7528 41.2888 12.6107 40.6244 11.991C39.9888 11.3986 39.7632 10.5021 39.7318 9.66126C39.6926 8.64151 39.9147 7.52039 40.69 6.79733C41.086 6.42909 41.5984 6.19701 42.1301 6.10706ZM42.4263 6.99611C41.8961 7.05972 41.418 7.40609 41.1879 7.88764C40.8306 8.61567 40.8361 9.46645 40.9707 10.2496C41.0667 10.8435 41.4309 11.4309 42.0163 11.6421C42.7444 11.8916 43.6806 11.7624 44.1527 11.1024C44.6333 10.4285 44.6502 9.54447 44.5627 8.75283C44.4986 8.21662 44.3147 7.64662 43.869 7.3072C43.4659 6.98865 42.9208 6.93101 42.4263 6.99611Z" fill="#7A7A7A"/>
<path d="M62.1319 6.71959C62.8644 6.1963 63.8161 6.02982 64.7012 6.10188C65.3253 6.15008 66.0012 6.38564 66.3361 6.95216C66.6259 7.4337 66.6532 8.01613 66.6527 8.56377C66.6452 9.86628 66.6646 11.1708 66.6433 12.4728C66.5066 12.7083 66.1533 12.6229 65.9237 12.6179C65.5475 12.5682 65.7517 12.0847 65.702 11.8292C64.9159 12.7188 63.515 13.009 62.4798 12.3938C61.7001 11.9376 61.4978 10.8577 61.8581 10.072C62.0897 9.58202 62.5747 9.26546 63.0771 9.10296C63.8738 8.83759 64.7245 8.87933 65.552 8.87685C65.5634 8.42214 65.5818 7.93463 65.3686 7.51918C65.1614 7.12907 64.6937 6.98396 64.2783 6.98297C63.592 6.92681 62.9489 7.22349 62.3635 7.54602C61.9019 7.77014 61.8775 6.92731 62.1319 6.71959ZM63.2824 9.95672C62.6125 10.3334 62.6791 11.4958 63.4131 11.7611C64.2167 12.0827 65.0804 11.5827 65.544 10.9352C65.5644 10.5153 65.547 10.0939 65.5515 9.67346C64.7951 9.69831 63.9692 9.56314 63.2824 9.95672Z" fill="#7A7A7A"/>
<path d="M52.5638 6.19335C53.6999 6.16105 54.8399 6.19086 55.9779 6.17894C56.1299 6.17595 56.3411 6.17248 56.3973 6.35187C56.4773 6.69875 56.445 7.08786 56.2442 7.391C55.3463 8.8083 54.4344 10.2167 53.5369 11.634C54.4334 11.6315 55.3299 11.635 56.2269 11.632C56.767 11.5142 56.768 12.684 56.2264 12.5633C55.0491 12.5598 53.8718 12.5633 52.695 12.5618C52.5469 12.5732 52.3824 12.4932 52.3531 12.3371C52.2994 12.0072 52.3183 11.6469 52.5116 11.3621C53.4171 9.94185 54.335 8.52852 55.2409 7.10823C54.3548 7.09382 53.4638 7.13109 52.5807 7.08985C52.3511 6.89107 52.3526 6.40505 52.5638 6.19335Z" fill="#7A7A7A"/>
</svg>
