<svg width="51" height="16" viewBox="0 0 51 16" fill="none" xmlns="http://www.w3.org/2000/svg">
<path d="M21.4481 0.307617L18.0635 15.8974H22.166L25.4481 0.307617H21.4481Z" fill="#7A7A7A"/>
<path d="M15.4997 0.307617L11.2946 10.8717L9.55097 1.84608C9.34584 0.820439 8.52534 0.307617 7.70483 0.307617H0.833008L0.730469 0.717899C2.16637 1.02559 3.70486 1.5384 4.7305 2.05122C5.34589 2.35891 5.44841 2.6666 5.65354 3.38454L8.83307 15.7949H13.1407L19.7049 0.205078H15.4997V0.307617Z" fill="#7A7A7A"/>
<path d="M47.3973 0.307617H43.9101C43.0896 0.307617 42.4742 0.717912 42.1666 1.43586L36.1152 15.8974H40.3203L41.1409 13.5384H46.2691L46.7819 15.8974H50.4742L47.3973 0.307617ZM42.4742 10.3589L44.6281 4.51279L45.8588 10.3589H42.4742Z" fill="#7A7A7A"/>
<path d="M30.7817 4.61539C30.7817 4.10257 31.2946 3.4872 32.5253 3.28207C33.1407 3.1795 34.6792 3.17952 36.5254 4.00003L37.2433 0.717962C36.3202 0.41027 34.9869 0 33.4484 0C29.4484 0 26.6792 2.15385 26.6792 5.12821C26.6792 7.38463 28.7305 8.61537 30.1664 9.33332C31.7048 10.0513 32.2176 10.5641 32.2176 11.2821C32.2176 12.3077 30.9869 12.8205 29.7561 12.8205C27.7048 12.8205 26.5766 12.3077 25.6535 11.7949L24.9355 15.1795C25.8586 15.5898 27.6022 16 29.4484 16C33.6535 16 36.4228 13.9488 36.4228 10.6667C36.4228 6.76927 30.6792 6.46155 30.7817 4.61539Z" fill="#7A7A7A"/>
</svg>
