<svg width="20" height="20" viewBox="0 0 20 20" fill="none" xmlns="http://www.w3.org/2000/svg">
<path d="M18.125 6.0625V8.96875C17.9687 8.96875 17.7813 9 17.5938 9C16.1875 9 14.875 8.46875 13.875 7.625V13.8125C13.875 15.0625 13.4687 16.25 12.75 17.1875C11.75 18.5313 10.125 19.4375 8.28125 19.4375C6.28125 19.4375 4.53125 18.375 3.5625 16.8125C4.5625 17.75 5.90625 18.3437 7.375 18.3437C9.1875 18.3437 10.8125 17.4688 11.8125 16.0938C12.5 15.1563 12.9375 14 12.9375 12.7188V6.5C13.9375 7.375 15.2188 7.875 16.6563 7.875C16.8438 7.875 17 7.875 17.1875 7.84375V5.96875C17.4687 6.03125 17.7187 6.0625 18 6.0625H18.125Z" fill="#FF004F"/>
<path d="M9.0625 8.21875V11.4375C8.84375 11.375 8.59375 11.3437 8.375 11.3437C7 11.3437 5.875 12.5 5.875 13.9062C5.875 14.2187 5.9375 14.5 6.03125 14.7812C5.40625 14.3125 4.96875 13.5625 4.96875 12.7188C4.96875 11.3125 6.09375 10.1562 7.46875 10.1562C7.71875 10.1562 7.9375 10.1875 8.15625 10.25V8.1875C8.21875 8.1875 8.28125 8.1875 8.34375 8.1875C8.59375 8.1875 8.84375 8.1875 9.0625 8.21875Z" fill="#FF004F"/>
<path d="M14.3438 3.75C13.7813 3.25 13.375 2.5625 13.1562 1.84375H13.9063C13.9063 2 13.9063 2.125 13.9063 2.28125C13.9688 2.78125 14.125 3.28125 14.3438 3.75Z" fill="#FF004F"/>
<path d="M17.2187 6V7.875C17.0625 7.90625 16.875 7.90625 16.6875 7.90625C15.2813 7.90625 13.9688 7.375 12.9688 6.53125V12.7187C12.9688 13.9687 12.5625 15.1562 11.8438 16.0937C10.8125 17.4687 9.21875 18.3437 7.40625 18.3437C5.9375 18.3437 4.59375 17.75 3.59375 16.8125C3.0625 15.9375 2.75 14.9375 2.75 13.8437C2.75 10.8125 5.15625 8.34375 8.15625 8.25V10.3125C7.9375 10.25 7.6875 10.2188 7.46875 10.2188C6.09375 10.2188 4.96875 11.375 4.96875 12.7812C4.96875 13.625 5.375 14.4062 6.03125 14.8437C6.375 15.8125 7.3125 16.5312 8.375 16.5312C9.75 16.5312 10.875 15.375 10.875 13.9687V1.84375H13.1562C13.375 2.59375 13.7813 3.25 14.3438 3.75C14.9063 4.875 15.9687 5.71875 17.2187 6Z" fill="black"/>
<path d="M8.15625 7.125V8.1875C5.15625 8.28125 2.75 10.75 2.75 13.7812C2.75 14.875 3.0625 15.875 3.59375 16.75C2.53125 15.7187 1.875 14.2812 1.875 12.6562C1.875 9.5625 4.375 7.0625 7.4375 7.0625C7.6875 7.0625 7.9375 7.09375 8.15625 7.125Z" fill="#00F7EF"/>
<path d="M13.1562 1.84375H10.875V13.9062C10.875 15.3125 9.75 16.4688 8.375 16.4688C7.28125 16.4688 6.375 15.7812 6.03125 14.7812C6.4375 15.0625 6.9375 15.25 7.46875 15.25C8.84375 15.25 9.96875 14.125 9.96875 12.7188V0.625H13V0.6875C13 0.8125 13 0.9375 13.0313 1.0625C13.0313 1.3125 13.0937 1.59375 13.1562 1.84375Z" fill="#00F7EF"/>
<path d="M17.2187 4.84375V5.96875C15.9687 5.71875 14.9062 4.875 14.3125 3.75C15.0938 4.46875 16.0937 4.875 17.2187 4.84375Z" fill="#00F7EF"/>
</svg>
